<svg width="120" height="100" viewBox="0 0 120 100" fill="none" xmlns="http://www.w3.org/2000/svg">
<path d="M66.2 59.3804C70.9 61.7835 76.8 61.3258 81 57.8928C85.7 54.1165 88.1 47.0216 86.9 40.6134C85.7 34.2052 81.2 29.2845 75.7 27.6825C70.2 26.0804 63.9 28.2546 60.6 34.0907C56.1 41.8722 57.5 54.9175 66.2 59.3804Z" fill="#C0A7E0"/>
<path d="M26.4014 65.1855C30.1152 67.0615 34.7772 66.7042 38.096 64.0242C41.8098 61.0761 43.7062 55.5375 42.758 50.5348C41.8098 45.5321 38.254 41.6907 33.9081 40.4401C29.5621 39.1894 24.584 40.8867 21.9765 45.4427C18.4207 51.5174 19.527 61.7015 26.4014 65.1855Z" fill="#C0A7E0"/>
<path d="M51.8002 83.7547L92.7002 85.5857V72.7691C89.9002 67.3907 81.0002 63.3856 71.9002 63.3856C61.8002 63.2711 54.0002 70.8237 51.7002 75.7444L51.8002 83.7547Z" fill="#C0A7E0"/>
<path d="M15.078 84.3989L47 85.8145V75.9053C44.8146 71.747 37.8683 68.6504 30.7659 68.6504C22.8829 68.5619 16.7951 74.4012 15 78.2056L15.078 84.3989Z" fill="#C0A7E0"/>
<path d="M98.2998 59.2661L111.9 84.2124H102.6L98.2998 75.9733" stroke="#2C3A4B" stroke-width="1.4" stroke-miterlimit="10" stroke-linecap="round" stroke-linejoin="round"/>
<path d="M8.51527 8L98 10.4063V92.6804L8 90.2741L8.51527 8Z" stroke="#2C3A4B" stroke-width="1.4" stroke-miterlimit="10" stroke-linecap="round" stroke-linejoin="round"/>
<path d="M70.0994 35.2358L66.8994 44.5051L69.6994 43.9329" stroke="#2C3A4B" stroke-width="1.4" stroke-miterlimit="10" stroke-linecap="round" stroke-linejoin="round"/>
<path d="M69.9 49.3105C69.1 49.8826 68 49.997 67.1 49.7682C66.2 49.4249 65.4 48.6239 65 47.7085" stroke="#2C3A4B" stroke-width="1.4" stroke-miterlimit="10" stroke-linecap="round" stroke-linejoin="round"/>
<path d="M76.7003 36.3794C76.7003 36.3794 76.3003 37.9815 75.4002 38.4392C74.5002 38.7825 73.9002 38.4392 73.7002 37.6382C73.5002 36.8371 73.7002 35.9216 73.7002 35.9216" stroke="#2C3A4B" stroke-width="1.4" stroke-miterlimit="10" stroke-linecap="round" stroke-linejoin="round"/>
<path d="M65.8998 35.4641C65.8998 35.4641 65.3998 36.6084 64.4998 36.6084C63.2998 36.494 63.4998 34.6631 63.4998 34.6631" stroke="#2C3A4B" stroke-width="1.4" stroke-miterlimit="10" stroke-linecap="round" stroke-linejoin="round"/>
<path d="M29.6294 46.5435L27.1699 53.6675L29.322 53.2277" stroke="#2C3A4B" stroke-width="1.4" stroke-miterlimit="10" stroke-linecap="round" stroke-linejoin="round"/>
<path d="M29.4761 57.3612C28.8612 57.8009 28.0157 57.8888 27.324 57.7129C26.6323 57.4491 26.0174 56.8336 25.71 56.1301" stroke="#2C3A4B" stroke-width="1.4" stroke-miterlimit="10" stroke-linecap="round" stroke-linejoin="round"/>
<path d="M34.7022 47.4224C34.7022 47.4224 34.3948 48.6539 33.7031 49.0058C33.0113 49.2697 32.5502 49.0058 32.3964 48.39C32.2427 47.7743 32.3964 47.0706 32.3964 47.0706" stroke="#2C3A4B" stroke-width="1.4" stroke-miterlimit="10" stroke-linecap="round" stroke-linejoin="round"/>
<path d="M26.4011 46.7189C26.4011 46.7189 26.0168 47.5984 25.3251 47.5984C24.4028 47.5104 24.5565 46.1033 24.5565 46.1033" stroke="#2C3A4B" stroke-width="1.4" stroke-miterlimit="10" stroke-linecap="round" stroke-linejoin="round"/>
<path d="M77.5 16.3538L92.7 17.0404V32.031" stroke="#2C3A4B" stroke-width="1.4" stroke-miterlimit="10" stroke-linecap="round" stroke-linejoin="round"/>
<path d="M91.9998 84.7856L68.2998 83.8691" stroke="#2C3A4B" stroke-width="1.4" stroke-miterlimit="10" stroke-linecap="round" stroke-linejoin="round"/>
<path d="M46 84.6702L28 83.5259" stroke="#2C3A4B" stroke-width="1.4" stroke-miterlimit="10" stroke-linecap="round" stroke-linejoin="round"/>
</svg>
