<svg width="120" height="100" viewBox="0 0 120 100" fill="none" xmlns="http://www.w3.org/2000/svg">
<path d="M47.199 57.9003C51.899 60.0003 57.799 59.6003 61.999 56.6003C66.699 53.3003 69.099 47.1003 67.899 41.5003C66.699 35.9003 62.199 31.6003 56.699 30.2003C51.199 28.8003 44.899 30.7003 41.599 35.8003C37.099 42.6003 38.499 54.0003 47.199 57.9003Z" fill="#C0A7E0"/>
<path d="M32.7992 79.1996L73.6992 80.7996V69.5996C70.8992 64.8996 61.9992 61.3996 52.8992 61.3996C42.7992 61.2996 34.9992 67.8996 32.6992 72.1996L32.7992 79.1996Z" fill="#C0A7E0"/>
<path d="M79.2988 57.8008L92.8988 79.6008H83.5988L79.2988 72.4008" stroke="#2C3A4B" stroke-width="1.4" stroke-miterlimit="10" stroke-linecap="round" stroke-linejoin="round"/>
<path d="M26.9992 12.6992L79.0992 14.7992V86.5992L26.6992 84.4992L26.9992 12.6992Z" stroke="#2C3A4B" stroke-width="1.4" stroke-miterlimit="10" stroke-linecap="round" stroke-linejoin="round"/>
<path d="M51.0984 36.8008L47.8984 44.9008L50.6984 44.4008" stroke="#2C3A4B" stroke-width="1.4" stroke-miterlimit="10" stroke-linecap="round" stroke-linejoin="round"/>
<path d="M50.898 49.1007C50.098 49.6007 48.998 49.7007 48.098 49.5007C47.198 49.2007 46.398 48.5007 45.998 47.7007" stroke="#2C3A4B" stroke-width="1.4" stroke-miterlimit="10" stroke-linecap="round" stroke-linejoin="round"/>
<path d="M57.6983 37.8009C57.6983 37.8009 57.2983 39.2009 56.3983 39.6009C55.4983 39.9009 54.8983 39.6009 54.6983 38.9009C54.4983 38.2009 54.6983 37.4009 54.6983 37.4009" stroke="#2C3A4B" stroke-width="1.4" stroke-miterlimit="10" stroke-linecap="round" stroke-linejoin="round"/>
<path d="M46.8988 37.0008C46.8988 37.0008 46.3988 38.0008 45.4988 38.0008C44.2988 37.9008 44.4988 36.3008 44.4988 36.3008" stroke="#2C3A4B" stroke-width="1.4" stroke-miterlimit="10" stroke-linecap="round" stroke-linejoin="round"/>
<path d="M58.5 20.3008L73.7 20.9008V34.0008" stroke="#2C3A4B" stroke-width="1.4" stroke-miterlimit="10" stroke-linecap="round" stroke-linejoin="round"/>
<path d="M72.9988 80.1008L49.2988 79.3008" stroke="#2C3A4B" stroke-width="1.4" stroke-miterlimit="10" stroke-linecap="round" stroke-linejoin="round"/>
</svg>
